<svg width="328" height="130" viewBox="0 0 328 130" fill="none" xmlns="http://www.w3.org/2000/svg">
<path d="M21.623 21.1768C21.623 20.0628 21.527 19.2562 21.335 18.7568C21.1813 18.2575 21.1045 17.7965 21.1045 17.374C21.1045 16.7979 21.4118 16.3177 22.0264 15.9336C22.641 15.5495 23.3708 15.3574 24.2158 15.3574C26.1748 15.3574 27.7497 15.876 28.9404 16.9131C30.1696 17.9118 30.7842 19.141 30.7842 20.6006V59.1465C32.1286 58.9928 33.6458 58.6087 35.3359 57.9941C37.0645 57.3796 38.8314 56.5345 40.6367 55.459C42.4421 54.3451 44.1898 52.9814 45.8799 51.3682C47.6084 49.7549 49.1449 47.8727 50.4893 45.7217C51.8337 43.5706 52.9092 41.1507 53.7158 38.4619C54.5609 35.7347 54.9834 32.7194 54.9834 29.416C54.9834 27.1882 54.6185 24.8835 53.8887 22.502C53.1973 20.1204 52.0833 17.9502 50.5469 15.9912C49.0104 14.0322 47.013 12.4189 44.5547 11.1514C42.1348 9.88379 39.1963 9.25 35.7393 9.25C31.0146 9.25 26.9622 9.97982 23.582 11.4395C20.2018 12.8991 17.4362 14.8581 15.2852 17.3164C13.1725 19.7747 11.6169 22.6364 10.6182 25.9014C9.61947 29.1279 9.12012 32.5465 9.12012 36.1572C9.12012 38.7692 9.33138 40.9779 9.75391 42.7832C10.2148 44.5501 10.7142 46.0098 11.252 47.1621C11.7897 48.276 12.2891 49.1019 12.75 49.6396C13.2109 50.1774 13.4798 50.4847 13.5566 50.5615C14.2096 50.3695 14.6706 50.4463 14.9395 50.792C15.2083 51.1377 15.3428 51.5986 15.3428 52.1748C15.3428 52.7126 15.1507 53.5192 14.7666 54.5947C14.4209 55.6702 13.9408 56.6882 13.3262 57.6484C12.7116 58.5703 12.001 59.2809 11.1943 59.7803C10.3877 60.2412 9.56185 60.1452 8.7168 59.4922C8.25586 59.0697 7.54525 58.3014 6.58496 57.1875C5.62467 56.0736 4.66439 54.5947 3.7041 52.751C2.78223 50.8688 1.95638 48.6217 1.22656 46.0098C0.496745 43.3594 0.131836 40.3057 0.131836 36.8486C0.131836 31.3174 0.996094 26.3239 2.72461 21.8682C4.45312 17.374 6.87305 13.5329 9.98438 10.3447C13.1341 7.15658 16.8792 4.69824 21.2197 2.96973C25.5602 1.24121 30.3617 0.376953 35.624 0.376953C39.9261 0.376953 43.8249 1.08757 47.3203 2.50879C50.8542 3.93001 53.8503 5.92741 56.3086 8.50098C58.8053 11.0361 60.7259 14.0706 62.0703 17.6045C63.4147 21.1383 64.0869 24.9987 64.0869 29.1855C64.0869 34.3327 63.165 39.0957 61.3213 43.4746C59.4775 47.8151 57.0192 51.6755 53.9463 55.0557C50.8734 58.4359 47.3203 61.2399 43.2871 63.4678C39.2923 65.6956 35.1247 67.2129 30.7842 68.0195V83.5762C30.7842 84.5749 30.4577 85.2663 29.8047 85.6504C29.1517 86.0729 28.3835 86.2842 27.5 86.2842C26.8086 86.2842 26.1172 86.1882 25.4258 85.9961C24.7344 85.804 24.1006 85.5544 23.5244 85.2471C22.9867 84.9398 22.5257 84.5749 22.1416 84.1523C21.7959 83.7682 21.623 83.3457 21.623 82.8848V21.1768ZM95.373 86.2842C93.9902 86.2842 92.569 86.0729 91.1094 85.6504C89.6882 85.2279 88.3822 84.498 87.1914 83.4609C86.0391 82.4238 85.0788 81.0602 84.3105 79.3701C83.5807 77.6416 83.2158 75.4714 83.2158 72.8594C83.2158 69.0566 83.7152 65.0426 84.7139 60.8174C85.751 56.5537 87.2298 51.8675 89.1504 46.7588H80.1621H78.8369C78.7985 47.9111 78.7217 49.3708 78.6064 51.1377C78.5296 52.9046 78.376 54.7868 78.1455 56.7842C77.915 58.7816 77.6077 60.7982 77.2236 62.834C76.8779 64.8698 76.4362 66.752 75.8984 68.4805C75.5143 69.7096 74.8997 70.4202 74.0547 70.6123C73.248 70.8044 72.4414 70.6699 71.6348 70.209C70.8281 69.7096 70.1751 68.999 69.6758 68.0771C69.1764 67.1553 69.0612 66.195 69.3301 65.1963C69.6374 64.0055 69.9062 62.5651 70.1367 60.875C70.3672 59.1465 70.54 57.3411 70.6553 55.459C70.8089 53.5384 70.9242 51.637 71.001 49.7549C71.0778 47.8343 71.1354 46.125 71.1738 44.627C69.7142 43.8203 68.5042 42.8024 67.5439 41.5732C66.5837 40.3057 66.1035 38.8076 66.1035 37.0791C66.1035 36.2725 66.2572 35.5426 66.5645 34.8896C66.9102 34.1982 67.3519 33.6221 67.8896 33.1611C68.4274 32.6618 69.0612 32.2969 69.791 32.0664C70.5208 31.7975 71.2699 31.6631 72.0381 31.6631C72.7295 31.6631 73.4401 31.7591 74.1699 31.9512C74.9382 32.1432 75.6488 32.4889 76.3018 32.9883C76.9932 33.4876 77.6077 34.1406 78.1455 34.9473C78.6833 35.7539 79.125 36.7526 79.4707 37.9434C80.431 38.0586 81.2376 38.1546 81.8906 38.2314C82.582 38.2699 83.1582 38.3083 83.6191 38.3467C84.0801 38.3851 84.4642 38.4043 84.7715 38.4043C85.0788 38.4043 85.3861 38.4043 85.6934 38.4043H91.8584C92.2041 38.4043 92.7035 38.6156 93.3564 39.0381C94.0479 39.4606 94.7201 40.0176 95.373 40.709C96.026 41.362 96.5638 42.0726 96.9863 42.8408C97.4473 43.609 97.6201 44.3389 97.5049 45.0303C97.5049 45.2607 97.3704 45.8177 97.1016 46.7012C96.8327 47.5846 96.5062 48.6986 96.1221 50.043C95.738 51.3874 95.3154 52.943 94.8545 54.71C94.3936 56.4385 93.971 58.263 93.5869 60.1836C93.2028 62.1042 92.8763 64.1016 92.6074 66.1758C92.3385 68.2116 92.2041 70.209 92.2041 72.168C92.2041 72.9746 92.3001 73.762 92.4922 74.5303C92.6842 75.2985 92.9723 75.9899 93.3564 76.6045C93.7406 77.1807 94.2207 77.6416 94.7969 77.9873C95.4115 78.333 96.1221 78.5059 96.9287 78.5059C98.2731 78.5059 99.4255 78.0833 100.386 77.2383C101.346 76.3932 102.153 75.3369 102.806 74.0693C103.459 72.8018 103.977 71.4382 104.361 69.9785C104.784 68.4805 105.13 67.0785 105.398 65.7725C105.629 64.5433 106.013 63.6598 106.551 63.1221C107.089 62.5459 107.646 62.2578 108.222 62.2578C108.683 62.2578 109.163 62.4115 109.662 62.7188C110.161 62.9876 110.603 63.3525 110.987 63.8135C111.41 64.2744 111.736 64.793 111.967 65.3691C112.236 65.9453 112.37 66.5215 112.37 67.0977C112.37 67.2897 112.351 67.4434 112.312 67.5586C112.274 67.6738 112.255 67.7891 112.255 67.9043C111.717 69.8633 111.007 71.9183 110.123 74.0693C109.278 76.2204 108.183 78.1986 106.839 80.0039C105.494 81.8092 103.881 83.3073 101.999 84.498C100.117 85.6888 97.9082 86.2842 95.373 86.2842ZM149.13 63.5254C149.207 63.0645 149.456 62.6803 149.879 62.373C150.34 62.0658 150.858 61.8545 151.435 61.7393C152.011 61.624 152.606 61.624 153.221 61.7393C153.874 61.8545 154.431 62.1234 154.892 62.5459C155.391 62.93 155.737 63.487 155.929 64.2168C156.159 64.9082 156.14 65.8109 155.871 66.9248C155.525 68.5381 154.949 70.0553 154.143 71.4766C153.374 72.8594 152.395 74.0885 151.204 75.1641C150.013 76.2396 148.611 77.0846 146.998 77.6992C145.385 78.3138 143.579 78.6211 141.582 78.6211C140.507 78.6211 139.489 78.5635 138.528 78.4482C137.606 78.333 136.704 78.1217 135.82 77.8145C134.361 80.3496 132.479 82.3854 130.174 83.9219C127.869 85.4967 125.027 86.2842 121.646 86.2842C118.65 86.2842 116.077 85.6888 113.926 84.498C111.775 83.3457 109.989 81.7708 108.567 79.7734C107.146 77.7376 106.09 75.3945 105.398 72.7441C104.745 70.0938 104.419 67.2897 104.419 64.332C104.419 59.9915 104.918 56.112 105.917 52.6934C106.954 49.2363 108.145 46.3171 109.489 43.9355C110.834 41.5156 112.159 39.6719 113.465 38.4043C114.809 37.1367 115.808 36.5029 116.461 36.5029C117.229 36.5029 117.921 36.8486 118.535 37.54C119.188 38.193 119.649 38.9805 119.918 39.9023C120.225 40.7858 120.302 41.6885 120.148 42.6104C120.033 43.5322 119.591 44.2428 118.823 44.7422C118.362 45.472 117.805 46.3171 117.152 47.2773C116.538 48.2376 115.942 49.4476 115.366 50.9072C114.828 52.3285 114.368 54.0762 113.983 56.1504C113.599 58.2246 113.407 60.7214 113.407 63.6406C113.407 66.1374 113.618 68.3076 114.041 70.1514C114.502 71.9951 115.117 73.5508 115.885 74.8184C116.691 76.0475 117.594 76.9694 118.593 77.584C119.63 78.1986 120.725 78.5059 121.877 78.5059C123.567 78.5059 124.95 78.1025 126.025 77.2959C127.139 76.4508 128.08 75.3561 128.849 74.0117C126.083 71.6302 123.97 68.6149 122.511 64.9658C121.09 61.2783 120.379 57.3027 120.379 53.0391C120.379 51.1953 120.571 49.4476 120.955 47.7959C121.378 46.1058 121.973 44.627 122.741 43.3594C123.548 42.0918 124.547 41.0931 125.737 40.3633C126.928 39.5951 128.311 39.2109 129.886 39.2109C131.269 39.2109 132.575 39.7103 133.804 40.709C135.033 41.7077 136.108 43.0905 137.03 44.8574C137.952 46.6243 138.663 48.7178 139.162 51.1377C139.7 53.5576 139.969 56.1888 139.969 59.0312C139.969 61.2207 139.834 63.391 139.565 65.542C139.297 67.693 138.874 69.7673 138.298 71.7646C138.72 71.9183 139.104 72.0143 139.45 72.0527C139.834 72.0527 140.238 72.0527 140.66 72.0527C141.928 72.0527 143.042 71.8223 144.002 71.3613C145.001 70.9004 145.846 70.2858 146.537 69.5176C147.229 68.7493 147.785 67.8467 148.208 66.8096C148.631 65.7725 148.938 64.6777 149.13 63.5254ZM126.602 52.5781C126.602 55.2285 127.005 57.7445 127.812 60.126C128.657 62.5075 129.751 64.5817 131.096 66.3486C131.326 64.4665 131.441 62.6611 131.441 60.9326C131.441 58.9352 131.403 57.0915 131.326 55.4014C131.288 53.6729 131.153 52.194 130.923 50.9648C130.731 49.7357 130.443 48.7754 130.059 48.084C129.713 47.3542 129.233 46.9893 128.618 46.9893C127.274 46.9893 126.602 48.8522 126.602 52.5781ZM219.596 67.9043C219.058 69.8633 218.347 71.9183 217.464 74.0693C216.619 76.2204 215.524 78.1986 214.18 80.0039C212.835 81.8092 211.222 83.3073 209.34 84.498C207.458 85.6888 205.249 86.2842 202.714 86.2842C201.139 86.2842 199.737 85.9769 198.508 85.3623C197.317 84.7861 196.28 83.9987 195.396 83C194.551 82.0013 193.898 80.8298 193.438 79.4854C193.015 78.141 192.804 76.7197 192.804 75.2217V51.2529C192.804 50.3311 192.785 49.4668 192.746 48.6602C192.708 47.8535 192.612 47.1429 192.458 46.5283C192.304 45.9137 192.074 45.4336 191.767 45.0879C191.498 44.7038 191.114 44.5117 190.614 44.5117C189.808 44.5117 188.828 45.0879 187.676 46.2402C186.523 47.3926 185.41 48.8906 184.334 50.7344C183.258 52.5781 182.298 54.6715 181.453 57.0146C180.608 59.3193 180.109 61.6432 179.955 63.9863V81.2139C179.955 81.79 179.936 82.3854 179.897 83C179.897 83.5762 179.782 84.0947 179.552 84.5557C179.36 85.055 179.033 85.4583 178.572 85.7656C178.15 86.1113 177.516 86.2842 176.671 86.2842C176.095 86.2842 175.461 86.2074 174.77 86.0537C174.117 85.9385 173.502 85.6888 172.926 85.3047C172.388 84.959 171.927 84.4404 171.543 83.749C171.197 83.096 171.024 82.2126 171.024 81.0986V51.2529C171.024 50.3311 170.986 49.4668 170.909 48.6602C170.871 47.8535 170.775 47.1429 170.621 46.5283C170.467 45.9137 170.237 45.4336 169.93 45.0879C169.661 44.7038 169.277 44.5117 168.777 44.5117C167.971 44.5117 166.991 45.0879 165.839 46.2402C164.725 47.3926 163.611 48.8906 162.497 50.7344C161.422 52.5781 160.461 54.6715 159.616 57.0146C158.81 59.3193 158.31 61.6432 158.118 63.9863V81.2139C158.118 81.79 158.099 82.3854 158.061 83C158.061 83.5762 157.945 84.0947 157.715 84.5557C157.523 85.055 157.196 85.4583 156.735 85.7656C156.313 86.1113 155.679 86.2842 154.834 86.2842C154.258 86.2842 153.624 86.2074 152.933 86.0537C152.28 85.9385 151.665 85.6888 151.089 85.3047C150.551 84.959 150.09 84.4404 149.706 83.749C149.36 83.096 149.188 82.2126 149.188 81.0986V43.7051C149.188 42.5911 149.091 41.7845 148.899 41.2852C148.746 40.7858 148.669 40.3249 148.669 39.9023C148.669 39.3262 148.976 38.8652 149.591 38.5195C150.205 38.1354 150.935 37.9434 151.78 37.9434C153.739 37.9434 155.276 38.4619 156.39 39.499C157.542 40.4977 158.118 41.7077 158.118 43.1289V48.084C158.886 46.4707 159.712 44.9727 160.596 43.5898C161.518 42.207 162.497 41.0163 163.534 40.0176C164.571 38.9805 165.666 38.1738 166.818 37.5977C168.009 37.0215 169.277 36.7334 170.621 36.7334C172.388 36.7334 173.848 37.0599 175 37.7129C176.191 38.3659 177.132 39.2301 177.823 40.3057C178.553 41.3812 179.072 42.5911 179.379 43.9355C179.686 45.2415 179.878 46.5475 179.955 47.8535C180.685 46.2786 181.492 44.819 182.375 43.4746C183.258 42.1302 184.219 40.9587 185.256 39.96C186.293 38.9613 187.388 38.1738 188.54 37.5977C189.731 37.0215 190.998 36.7334 192.343 36.7334C194.263 36.7334 195.838 37.0983 197.067 37.8281C198.297 38.5579 199.257 39.499 199.948 40.6514C200.64 41.8037 201.12 43.0905 201.389 44.5117C201.658 45.9329 201.792 47.3158 201.792 48.6602V73.0898C201.792 73.3587 201.811 73.8005 201.85 74.415C201.888 74.9912 202.003 75.5866 202.195 76.2012C202.387 76.8158 202.675 77.3535 203.06 77.8145C203.482 78.2754 204.077 78.5059 204.846 78.5059C206.036 78.5059 207.054 78.0833 207.899 77.2383C208.783 76.3932 209.532 75.3369 210.146 74.0693C210.799 72.8018 211.337 71.4382 211.76 69.9785C212.182 68.4805 212.528 67.0785 212.797 65.7725C213.027 64.5433 213.392 63.6598 213.892 63.1221C214.429 62.5459 215.006 62.2578 215.62 62.2578C216.081 62.2578 216.542 62.4115 217.003 62.7188C217.502 62.9876 217.944 63.3525 218.328 63.8135C218.751 64.2744 219.077 64.793 219.308 65.3691C219.576 65.9453 219.711 66.5215 219.711 67.0977C219.711 67.1745 219.711 67.2705 219.711 67.3857C219.711 67.501 219.673 67.6738 219.596 67.9043ZM227.893 87.4941C226.433 87.4941 225.242 87.3213 224.32 86.9756C223.398 86.6683 222.688 86.2458 222.188 85.708V124.081C222.188 125.157 221.977 126.021 221.555 126.674C221.132 127.365 220.594 127.903 219.941 128.287C219.327 128.671 218.655 128.921 217.925 129.036C217.195 129.19 216.542 129.267 215.966 129.267C214.775 129.267 214.026 128.959 213.719 128.345C213.411 127.73 213.258 126.981 213.258 126.098V43.7051C213.258 42.86 213.181 42.1878 213.027 41.6885C212.912 41.1891 212.778 40.805 212.624 40.5361C212.509 40.2288 212.374 39.9984 212.221 39.8447C212.105 39.6527 212.048 39.4414 212.048 39.2109C212.048 39.0189 212.163 38.846 212.394 38.6924C212.624 38.5387 212.931 38.4043 213.315 38.2891C213.7 38.1738 214.103 38.097 214.525 38.0586C214.986 37.9818 215.428 37.9434 215.851 37.9434C217.733 37.9434 219.231 38.4619 220.345 39.499C221.497 40.4977 222.112 41.6693 222.188 43.0137C223.418 41.2083 224.896 39.7103 226.625 38.5195C228.354 37.3288 230.466 36.7334 232.963 36.7334C235.268 36.7334 237.265 37.2712 238.955 38.3467C240.684 39.4222 242.105 40.901 243.219 42.7832C244.371 44.627 245.216 46.8164 245.754 49.3516C246.33 51.8867 246.618 54.6139 246.618 57.5332C246.618 60.8366 246.33 64.0055 245.754 67.04C245.178 70.0361 244.448 72.6097 243.564 74.7607C245.523 74.6455 247.137 74.3766 248.404 73.9541C249.672 73.5316 250.728 72.9554 251.573 72.2256C252.457 71.4574 253.206 70.5355 253.82 69.46C254.473 68.3844 255.146 67.1553 255.837 65.7725C256.375 64.6585 256.816 63.8519 257.162 63.3525C257.546 62.8532 258.007 62.6035 258.545 62.6035C259.044 62.6035 259.544 62.7572 260.043 63.0645C260.581 63.3717 261.042 63.7559 261.426 64.2168C261.848 64.6777 262.175 65.1771 262.405 65.7148C262.674 66.2142 262.809 66.6751 262.809 67.0977C262.809 68.4421 262.348 69.9785 261.426 71.707C260.504 73.4355 259.083 75.068 257.162 76.6045C255.28 78.141 252.879 79.4469 249.96 80.5225C247.079 81.5596 243.68 82.0781 239.762 82.0781C238.148 83.8066 236.285 85.1318 234.173 86.0537C232.06 87.014 229.967 87.4941 227.893 87.4941ZM229.967 44.627C229.122 44.627 228.296 44.8766 227.489 45.376C226.721 45.8753 225.991 46.5667 225.3 47.4502C224.608 48.2952 223.994 49.3324 223.456 50.5615C222.957 51.7907 222.534 53.1159 222.188 54.5371V80.0615C223.034 78.8324 224.416 77.8913 226.337 77.2383C228.257 76.5853 230.581 76.1436 233.309 75.9131C234 74.876 234.595 73.6468 235.095 72.2256C235.632 70.766 236.074 69.2679 236.42 67.7314C236.766 66.195 237.015 64.6969 237.169 63.2373C237.361 61.7777 237.457 60.4909 237.457 59.377C237.457 56.6882 237.246 54.4027 236.823 52.5205C236.439 50.6383 235.901 49.1211 235.21 47.9688C234.519 46.778 233.712 45.9329 232.79 45.4336C231.907 44.8958 230.965 44.627 229.967 44.627ZM245.235 27.5146C246.119 27.5915 247.098 27.6491 248.174 27.6875C249.096 27.7643 250.21 27.8219 251.516 27.8604C252.822 27.8604 254.281 27.8796 255.895 27.918V7.9248C255.895 7.07975 255.818 6.40755 255.664 5.9082C255.549 5.40885 255.414 5.02474 255.261 4.75586C255.146 4.44857 255.011 4.2181 254.857 4.06445C254.742 3.8724 254.685 3.68034 254.685 3.48828C254.685 3.25781 254.8 3.06576 255.03 2.91211C255.261 2.75846 255.568 2.62402 255.952 2.50879C256.336 2.39355 256.74 2.31673 257.162 2.27832C257.623 2.2015 258.065 2.16309 258.487 2.16309C260.446 2.16309 261.983 2.68164 263.097 3.71875C264.249 4.71745 264.825 5.92741 264.825 7.34863V28.0332C268.436 28.0332 272.239 27.9948 276.233 27.918C280.267 27.8411 284.3 27.7067 288.333 27.5146C288.871 26.9385 289.293 26.7272 289.601 26.8809C289.946 27.0345 290.158 27.3994 290.234 27.9756C290.35 28.5518 290.369 29.2624 290.292 30.1074C290.215 30.9525 290.062 31.7783 289.831 32.585C289.601 33.3532 289.274 34.0254 288.852 34.6016C288.467 35.1777 288.026 35.4658 287.526 35.4658C282.802 35.5811 278.615 35.6579 274.966 35.6963C271.355 35.6963 267.975 35.6963 264.825 35.6963V73.0898C264.825 75.0104 265.19 76.3932 265.92 77.2383C266.65 78.0833 267.629 78.5059 268.858 78.5059C270.049 78.5059 271.067 78.0833 271.912 77.2383C272.796 76.3932 273.545 75.3369 274.159 74.0693C274.812 72.8018 275.331 71.4382 275.715 69.9785C276.137 68.4805 276.483 67.0785 276.752 65.7725C276.982 64.5433 277.367 63.6598 277.904 63.1221C278.442 62.5459 278.999 62.2578 279.575 62.2578C280.036 62.2578 280.516 62.4115 281.016 62.7188C281.515 62.9876 281.957 63.3525 282.341 63.8135C282.763 64.2744 283.09 64.793 283.32 65.3691C283.589 65.9453 283.724 66.5215 283.724 67.0977C283.724 67.1745 283.724 67.2705 283.724 67.3857C283.724 67.501 283.685 67.6738 283.608 67.9043C283.109 69.8633 282.418 71.9183 281.534 74.0693C280.689 76.2204 279.575 78.1986 278.192 80.0039C276.848 81.8092 275.235 83.3073 273.353 84.498C271.47 85.6888 269.262 86.2842 266.727 86.2842C265.152 86.2842 263.692 86.0345 262.348 85.5352C261.042 85.0742 259.909 84.306 258.948 83.2305C257.988 82.1934 257.239 80.849 256.701 79.1973C256.163 77.5456 255.895 75.5482 255.895 73.2051V35.6963C254.589 35.6963 253.417 35.6963 252.38 35.6963C251.381 35.6579 250.536 35.6195 249.845 35.5811C249.038 35.5426 248.327 35.5042 247.713 35.4658C246.791 35.4658 245.984 35.0625 245.293 34.2559C244.563 33.4108 244.064 32.4889 243.795 31.4902C243.488 30.4915 243.449 29.5889 243.68 28.7822C243.872 27.9372 244.39 27.5146 245.235 27.5146ZM320.483 63.5254C320.56 63.0645 320.81 62.6803 321.232 62.373C321.693 62.0658 322.212 61.8545 322.788 61.7393C323.364 61.624 323.96 61.624 324.574 61.7393C325.227 61.8545 325.784 62.1234 326.245 62.5459C326.744 62.93 327.09 63.487 327.282 64.2168C327.513 64.9082 327.493 65.8109 327.225 66.9248C326.879 68.5381 326.303 70.0553 325.496 71.4766C324.728 72.8594 323.748 74.0885 322.558 75.1641C321.367 76.2396 319.965 77.0846 318.352 77.6992C316.738 78.3138 314.933 78.6211 312.936 78.6211C311.86 78.6211 310.842 78.5635 309.882 78.4482C308.96 78.333 308.057 78.1217 307.174 77.8145C305.714 80.3496 303.832 82.3854 301.527 83.9219C299.223 85.4967 296.38 86.2842 293 86.2842C290.004 86.2842 287.43 85.6888 285.279 84.498C283.128 83.3457 281.342 81.7708 279.921 79.7734C278.5 77.7376 277.443 75.3945 276.752 72.7441C276.099 70.0938 275.772 67.2897 275.772 64.332C275.772 59.9915 276.272 56.112 277.271 52.6934C278.308 49.2363 279.498 46.3171 280.843 43.9355C282.187 41.5156 283.512 39.6719 284.818 38.4043C286.163 37.1367 287.161 36.5029 287.814 36.5029C288.583 36.5029 289.274 36.8486 289.889 37.54C290.542 38.193 291.003 38.9805 291.271 39.9023C291.579 40.7858 291.656 41.6885 291.502 42.6104C291.387 43.5322 290.945 44.2428 290.177 44.7422C289.716 45.472 289.159 46.3171 288.506 47.2773C287.891 48.2376 287.296 49.4476 286.72 50.9072C286.182 52.3285 285.721 54.0762 285.337 56.1504C284.953 58.2246 284.761 60.7214 284.761 63.6406C284.761 66.1374 284.972 68.3076 285.395 70.1514C285.855 71.9951 286.47 73.5508 287.238 74.8184C288.045 76.0475 288.948 76.9694 289.946 77.584C290.983 78.1986 292.078 78.5059 293.23 78.5059C294.921 78.5059 296.303 78.1025 297.379 77.2959C298.493 76.4508 299.434 75.3561 300.202 74.0117C297.437 71.6302 295.324 68.6149 293.864 64.9658C292.443 61.2783 291.732 57.3027 291.732 53.0391C291.732 51.1953 291.924 49.4476 292.309 47.7959C292.731 46.1058 293.326 44.627 294.095 43.3594C294.901 42.0918 295.9 41.0931 297.091 40.3633C298.282 39.5951 299.664 39.2109 301.239 39.2109C302.622 39.2109 303.928 39.7103 305.157 40.709C306.386 41.7077 307.462 43.0905 308.384 44.8574C309.306 46.6243 310.016 48.7178 310.516 51.1377C311.053 53.5576 311.322 56.1888 311.322 59.0312C311.322 61.2207 311.188 63.391 310.919 65.542C310.65 67.693 310.228 69.7673 309.651 71.7646C310.074 71.9183 310.458 72.0143 310.804 72.0527C311.188 72.0527 311.591 72.0527 312.014 72.0527C313.281 72.0527 314.395 71.8223 315.355 71.3613C316.354 70.9004 317.199 70.2858 317.891 69.5176C318.582 68.7493 319.139 67.8467 319.562 66.8096C319.984 65.7725 320.291 64.6777 320.483 63.5254ZM297.955 52.5781C297.955 55.2285 298.358 57.7445 299.165 60.126C300.01 62.5075 301.105 64.5817 302.449 66.3486C302.68 64.4665 302.795 62.6611 302.795 60.9326C302.795 58.9352 302.757 57.0915 302.68 55.4014C302.641 53.6729 302.507 52.194 302.276 50.9648C302.084 49.7357 301.796 48.7754 301.412 48.084C301.066 47.3542 300.586 46.9893 299.972 46.9893C298.627 46.9893 297.955 48.8522 297.955 52.5781Z" fill="black"/>
</svg>
